HIERARCHY
ROOT Hips
{
	OFFSET 0.000000 0.000000 0.000000
	CHANNELS 6 Xposition Yposition Zposition Xrotation Yrotation Zrotation
	JOINT LeftUpLeg_virtual
	{
		OFFSET 0.000000 0.000000 0.000000
		CHANNELS 3 Xrotation Yrotation Zrotation
		JOINT LeftUpLeg
		{
			OFFSET 11.394100 -6.187798 -0.413800
			CHANNELS 3 Xrotation Yrotation Zrotation
			JOINT LeftLeg
			{
				OFFSET 0.430247 -32.302673 3.732800
				CHANNELS 3 Xrotation Yrotation Zrotation
				JOINT LeftFoot
				{
					OFFSET -0.430247 -48.264931 -6.423300
					CHANNELS 3 Xrotation Yrotation Zrotation
					JOINT LeftToeBase
					{
						OFFSET 4.230900 -16.068199 23.438400
						CHANNELS 3 Xrotation Yrotation Zrotation
						JOINT LeftToe_End
						{
							OFFSET 4.510700 0.695400 19.974600
							CHANNELS 3 Xrotation Yrotation Zrotation
							End Site
							{
								OFFSET 0 0 0
							}
						}
					}
				}
			}
		}
	}
	JOINT RightUpLeg_virtual
	{
		OFFSET 0.000000 0.000000 0.000000
		CHANNELS 3 Xrotation Yrotation Zrotation
		JOINT RightUpLeg
		{
			OFFSET -11.333700 -6.187798 -0.413800
			CHANNELS 3 Xrotation Yrotation Zrotation
			JOINT RightLeg
			{
				OFFSET -0.430392 -32.302628 3.733000
				CHANNELS 3 Xrotation Yrotation Zrotation
				JOINT RightFoot
				{
					OFFSET 0.430392 -48.264973 -6.423500
					CHANNELS 3 Xrotation Yrotation Zrotation
					JOINT RightToeBase
					{
						OFFSET -4.230900 -16.068199 23.438400
						CHANNELS 3 Xrotation Yrotation Zrotation
						JOINT RightToe_End
						{
							OFFSET -4.510700 0.695400 19.974600
							CHANNELS 3 Xrotation Yrotation Zrotation
							End Site
							{
								OFFSET 0 0 0
							}
						}
					}
				}
			}
		}
	}
	JOINT Spine_virtual
	{
		OFFSET 0.000000 0.000000 0.000000
		CHANNELS 3 Xrotation Yrotation Zrotation
		JOINT Spine
		{
			OFFSET -0.002400 12.777504 0.315300
			CHANNELS 3 Xrotation Yrotation Zrotation
			JOINT Spine1
			{
				OFFSET -0.002067 5.816869 0.032633
				CHANNELS 3 Xrotation Yrotation Zrotation
				JOINT Spine1_split
				{
					OFFSET -0.002067 5.816869 0.032633
					CHANNELS 3 Xrotation Yrotation Zrotation
					JOINT Spine2
					{
						OFFSET -0.002067 5.816869 0.032633
						CHANNELS 3 Xrotation Yrotation Zrotation
						JOINT Neck_virtual
						{
							OFFSET 0.000000 0.000000 0.000000
							CHANNELS 3 Xrotation Yrotation Zrotation
							JOINT Neck
							{
								OFFSET -0.003700 21.199493 -0.826900
								CHANNELS 3 Xrotation Yrotation Zrotation
								JOINT Head
								{
									OFFSET 0.000000 20.442200 4.834800
									CHANNELS 3 Xrotation Yrotation Zrotation
									JOINT HeadTop_End
									{
										OFFSET 0.000000 34.668396 4.968400
										CHANNELS 3 Xrotation Yrotation Zrotation
										End Site
										{
											OFFSET 0 0 0
										}
									}
								}
							}
						}
						JOINT LeftShoulder_virtual
						{
							OFFSET 0.000000 0.000000 0.000000
							CHANNELS 3 Xrotation Yrotation Zrotation
							JOINT LeftShoulder
							{
								OFFSET 3.288150 8.794197 -1.372250
								CHANNELS 3 Xrotation Yrotation Zrotation
								JOINT LeftShoulder_split
								{
									OFFSET 3.288150 8.794197 -1.372250
									CHANNELS 3 Xrotation Yrotation Zrotation
									JOINT LeftArm
									{
										OFFSET 11.953299 -2.279007 -0.146200
										CHANNELS 3 Xrotation Yrotation Zrotation
										JOINT LeftForeArm
										{
											OFFSET 18.448900 0.000000 0.000000
											CHANNELS 3 Xrotation Yrotation Zrotation
											JOINT LeftHand
											{
												OFFSET 29.527798 0.000000 0.000000
												CHANNELS 3 Xrotation Yrotation Zrotation
												End Site
												{
													OFFSET 0 0 0
												}
											}
										}
									}
								}
							}
						}
						JOINT RightShoulder_virtual
						{
							OFFSET 0.000000 0.000000 0.000000
							CHANNELS 3 Xrotation Yrotation Zrotation
							JOINT RightShoulder
							{
								OFFSET -3.249400 8.794197 -1.372250
								CHANNELS 3 Xrotation Yrotation Zrotation
								JOINT RightShoulder_split
								{
									OFFSET -3.249400 8.794197 -1.372250
									CHANNELS 3 Xrotation Yrotation Zrotation
									JOINT RightArm
									{
										OFFSET -11.953299 -2.279007 -0.146200
										CHANNELS 3 Xrotation Yrotation Zrotation
										JOINT RightForeArm
										{
											OFFSET -18.448900 0.000000 0.000000
											CHANNELS 3 Xrotation Yrotation Zrotation
											JOINT RightHand
											{
												OFFSET -29.527802 0.000000 0.000000
												CHANNELS 3 Xrotation Yrotation Zrotation
												End Site
												{
													OFFSET 0 0 0
												}
											}
										}
									}
								}
							}
						}
					}
				}
			}
		}
	}
}
MOTION
Frames: 10
Frame Time: 0.03333333
-2.147757 96.593582 0.820671 0.000000 0.000000 0.000000 1.512276 3.002932 -3.724281 -30.175742 6.394151 11.728925 44.157897 1.084712 1.337640 1.533896 -2.568862 -2.053157 -16.878695 -0.789618 -1.756913 0.000000 0.000000 0.000000 3.600689 4.395613 -3.404750 -24.179583 -4.776814 3.997114 25.864200 -0.811994 -4.248379 -7.278278 3.284647 -0.306879 -0.548488 -0.728958 -0.100929 0.000000 0.000000 0.000000 0.582550 1.167423 -3.446595 6.449703 -0.650611 3.643071 2.858869 -1.489895 1.771278 0.917325 -0.473266 0.834859 0.000000 0.000000 0.000000 2.735205 -1.519791 1.403258 -2.218243 4.504606 -0.915992 -1.207995 0.420901 -0.703105 0.000000 0.000000 0.000000 2.845953 -1.781759 1.319090 1.110473 -10.074026 -15.187154 1.446723 2.809081 -3.023614 12.916524 -23.821639 -46.970753 -0.896219 -21.967873 -2.250401 0.000000 0.000000 0.000000 1.572158 -1.450536 2.515145 0.798035 3.162520 16.710369 0.783928 0.351312 -2.750282 7.245465 23.196514 47.755747 -0.488461 34.235261 1.704067 0.000000 0.000000 0.000000 
-0.650806 96.506927 2.328579 0.000000 0.000000 0.000000 1.704704 2.715494 -3.264196 -29.518394 5.655153 12.130541 42.239457 1.789432 1.062801 0.684081 -2.083193 -1.235986 -14.652694 -0.127888 -3.171990 0.000000 0.000000 0.000000 3.834998 4.143873 -2.932757 -23.826859 -4.437373 3.177893 26.179360 -0.659414 -4.276735 -7.500699 2.934994 -0.558514 -0.415684 -0.817424 -0.125510 0.000000 0.000000 0.000000 0.872569 1.296354 -3.340172 6.388124 -0.189269 3.496334 3.127314 -1.247889 1.632125 0.728288 0.476658 0.731404 0.000000 0.000000 0.000000 2.792188 -1.284277 1.226086 -2.181376 4.002611 -0.379571 -1.608019 0.282241 -0.761831 0.000000 0.000000 0.000000 3.098986 -1.479193 1.240759 1.037094 -9.595599 -15.301471 0.668671 3.662720 -3.670179 13.374072 -22.121366 -47.276063 -0.952819 -21.181048 -2.307279 0.000000 0.000000 0.000000 1.668175 -1.216452 2.264492 0.572080 3.198559 16.372860 1.365424 0.961044 -3.100976 6.556252 23.829188 47.551514 -0.404305 37.656168 1.586808 0.000000 0.000000 0.000000 
1.628228 96.896736 4.488583 0.000000 0.000000 0.000000 1.796438 2.559916 -2.424163 -29.139827 5.013474 13.457758 38.811867 3.263671 0.743680 1.182764 -0.591868 -2.027603 -10.706905 0.461675 -4.487476 0.000000 0.000000 0.000000 3.745962 4.287699 -2.188431 -22.083026 -3.910110 1.799765 25.829149 -0.077600 -4.492053 -7.832985 2.435071 -0.131378 -0.642751 -0.795434 -0.298112 0.000000 0.000000 0.000000 1.077019 1.723533 -2.802859 6.550948 0.828028 3.048455 3.379808 -0.288818 1.297702 0.755147 0.814339 0.721380 0.000000 0.000000 0.000000 2.886377 -0.337659 0.808113 -1.941868 3.255067 -0.109425 -2.223938 -1.176158 -0.685205 0.000000 0.000000 0.000000 3.251468 -0.482091 0.923311 0.901357 -9.559469 -15.743786 -0.235626 3.903681 -4.017845 12.740598 -19.300750 -47.732186 -1.049433 -20.835381 -2.302823 0.000000 0.000000 0.000000 1.795806 -0.250647 1.787226 0.306367 3.874276 16.061576 2.104127 0.824303 -3.211974 7.130869 24.030525 46.586374 -0.231914 43.938098 1.275256 0.000000 0.000000 0.000000 
4.372116 97.529068 6.951012 0.000000 0.000000 0.000000 1.732894 2.561248 -1.449317 -29.231687 4.348936 15.410322 34.436294 4.894468 0.630845 3.530837 1.004086 -4.769060 -6.780871 0.821581 -5.153807 0.000000 0.000000 0.000000 3.357292 4.534143 -1.341853 -19.174347 -3.373071 0.004511 24.674361 0.943579 -4.767466 -8.088718 2.019627 0.979777 -1.007124 -0.678889 -0.610869 0.000000 0.000000 0.000000 1.033904 2.118772 -2.012077 6.836877 2.233975 2.435280 3.628291 1.185506 0.838801 1.080158 0.429423 0.722999 0.000000 0.000000 0.000000 3.043572 1.170751 0.260161 -1.596477 2.374425 -0.088135 -2.972550 -3.756731 -0.492584 0.000000 0.000000 0.000000 3.367662 1.050546 0.446381 0.722338 -9.992206 -16.486086 -0.813220 3.566844 -4.179257 11.150184 -15.741481 -48.226449 -1.107863 -20.911386 -2.212735 0.000000 0.000000 0.000000 1.967049 1.275933 1.184846 0.005635 5.129310 15.786046 2.738288 0.127833 -2.954666 8.676502 23.486650 45.047048 0.097539 51.669094 0.715956 0.000000 0.000000 0.000000 
7.252308 98.223709 9.614777 0.000000 0.000000 0.000000 1.482363 2.462706 -0.568317 -29.882645 3.876242 17.734245 29.932980 6.367284 0.715753 7.245379 1.740440 -8.941764 -4.323081 0.944594 -4.726082 0.000000 0.000000 0.000000 2.789753 4.617446 -0.610934 -15.543612 -3.096996 -1.995571 22.718288 2.297814 -4.958485 -8.237185 1.858887 2.563272 -1.196567 -0.507098 -0.950010 0.000000 0.000000 0.000000 0.928972 2.405083 -1.258588 7.168177 3.822839 1.825664 3.867026 2.955561 0.337633 1.386894 -0.114418 0.786366 0.000000 0.000000 0.000000 3.262927 3.002142 -0.288053 -1.293028 1.445419 -0.273146 -3.725304 -7.016075 -0.220030 0.000000 0.000000 0.000000 3.466137 2.897154 -0.077809 0.511565 -10.804545 -17.517769 -0.881441 3.048183 -4.197844 8.954260 -11.702732 -48.731228 -1.043162 -21.265509 -2.012016 0.000000 0.000000 0.000000 2.171460 3.125539 0.585778 -0.295647 6.882794 15.571243 3.151930 -0.536711 -2.683619 10.409326 22.099485 43.236142 0.559508 59.609492 -0.036125 0.000000 0.000000 0.000000 
9.976381 98.771774 12.298119 0.000000 0.000000 0.000000 1.025276 2.039079 -0.014115 -30.579122 3.695346 19.869020 25.743022 7.643942 0.949390 11.156551 1.065908 -13.334232 -3.750186 0.845724 -3.249071 0.000000 0.000000 0.000000 2.189122 4.542127 -0.205893 -11.701943 -3.118021 -3.929932 20.241460 3.778850 -4.949091 -8.523665 2.012086 4.386868 -1.263661 -0.371788 -1.186330 0.000000 0.000000 0.000000 0.699564 2.271906 -0.784498 7.527073 5.370481 1.352445 4.078650 4.810568 -0.120993 1.671135 -0.741799 0.708148 0.000000 0.000000 0.000000 3.488189 4.924868 -0.735966 -1.131187 0.565195 -0.540643 -4.255239 -10.472715 0.118646 0.000000 0.000000 0.000000 3.583507 4.828363 -0.558099 0.278122 -11.839930 -18.671394 -0.610012 2.604109 -4.222154 6.511819 -7.586995 -49.251439 -0.849286 -21.778808 -1.700063 0.000000 0.000000 0.000000 2.416883 5.061659 0.064390 -0.578541 8.988943 15.409340 3.162942 -0.718343 -2.557452 11.563675 19.835665 41.546378 1.043407 66.722752 -0.835389 0.000000 0.000000 0.000000 
12.468128 99.033905 14.762768 0.000000 0.000000 0.000000 0.404350 1.543092 0.091175 -31.275344 3.539262 21.538510 22.514948 8.459240 1.277224 14.105995 -0.947744 -17.270248 -3.851006 0.645803 -1.509245 0.000000 0.000000 0.000000 1.709579 4.263243 -0.215764 -7.907395 -3.313720 -5.625617 17.682655 5.250410 -4.739648 -9.112218 2.485355 6.233172 -1.673842 -0.335081 -1.294993 0.000000 0.000000 0.000000 0.440611 1.811731 -0.715623 7.835362 6.787290 1.114495 4.262397 6.622195 -0.491700 1.750038 -1.157472 0.633483 0.000000 0.000000 0.000000 3.701980 6.770102 -1.050435 -1.157339 -0.122443 -0.871790 -4.460020 -13.763071 0.522105 0.000000 0.000000 0.000000 3.745106 6.685857 -0.938412 0.039536 -12.915545 -19.833771 -0.245699 2.197875 -4.443357 4.168612 -3.627286 -49.750422 -0.489714 -22.409943 -1.269092 0.000000 0.000000 0.000000 2.635931 6.904090 -0.359371 -0.873742 11.186756 15.318617 2.918890 -0.262134 -2.532849 11.662477 16.913447 40.225962 1.504432 72.527026 -1.581317 0.000000 0.000000 0.000000 
14.623540 98.947594 16.814106 0.000000 0.000000 0.000000 -0.190253 0.931337 -0.234834 -32.024110 3.314815 22.746068 20.689811 8.896361 1.506807 15.202813 -3.683563 -20.120679 -3.893114 0.416347 0.117737 0.000000 0.000000 0.000000 1.233366 3.694810 -0.595064 -4.427382 -3.512538 -6.947904 15.511296 6.576817 -4.392441 -10.222464 3.175541 7.863943 -2.441286 -0.427482 -1.218080 0.000000 0.000000 0.000000 0.198490 1.075092 -1.063647 8.111846 7.990108 1.140457 4.407127 8.321060 -0.783935 1.517093 -1.345261 0.672139 0.000000 0.000000 0.000000 3.865084 8.440624 -1.255530 -1.312416 -0.552827 -1.204095 -4.356277 -16.459699 0.972658 0.000000 0.000000 0.000000 3.939683 8.388023 -1.214385 -0.197284 -13.951282 -20.962055 0.147650 1.906052 -4.837068 2.148860 -0.059792 -50.205234 -0.037488 -23.238554 -0.769917 0.000000 0.000000 0.000000 2.822259 8.573232 -0.699995 -1.165899 13.285745 15.341537 2.560256 0.646235 -2.541007 10.716451 13.654855 39.207519 1.799931 76.823878 -2.057960 0.000000 0.000000 0.000000 
16.459734 98.444901 18.680744 0.000000 0.000000 0.000000 -0.587215 0.055755 -0.867862 -32.579377 2.948934 23.527495 20.431763 9.198489 1.514094 14.550483 -6.372910 -21.418357 -3.660715 0.203248 1.330091 0.000000 0.000000 0.000000 0.816220 2.860884 -1.238270 -1.689259 -3.561984 -7.913373 14.271002 7.686317 -4.045149 -11.959497 3.953900 9.092785 -3.229653 -0.634541 -0.987396 0.000000 0.000000 0.000000 -0.079609 0.135112 -1.668579 8.385446 8.981582 1.329001 4.518930 9.863848 -1.026919 1.394286 -1.610121 0.664334 0.000000 0.000000 0.000000 3.953208 9.928774 -1.406603 -1.511823 -0.722379 -1.454402 -3.963759 -18.366300 1.417952 0.000000 0.000000 0.000000 4.123573 9.921733 -1.440978 -0.453011 -14.951588 -22.027787 0.595960 1.840057 -5.241895 0.466012 3.125285 -50.540815 0.433367 -24.313339 -0.281622 0.000000 0.000000 0.000000 2.999885 10.064980 -1.004230 -1.469857 15.183254 15.532757 1.999001 1.725222 -2.504945 8.884969 10.314602 38.375653 1.618342 79.442545 -1.954313 0.000000 0.000000 0.000000 
18.035696 97.574287 20.224688 0.000000 0.000000 0.000000 -0.714757 -1.001829 -1.660958 -33.044489 2.252170 24.036156 21.968892 9.402730 1.317298 12.871228 -8.459343 -21.508771 -2.709992 0.121861 1.696374 0.000000 0.000000 0.000000 0.500692 1.943813 -2.001629 0.201357 -3.586247 -8.582531 14.052430 8.577925 -3.837419 -14.343240 4.718417 9.809679 -3.728576 -0.890461 -0.743539 0.000000 0.000000 0.000000 -0.305946 -1.004485 -2.408219 8.726002 9.869968 1.561036 4.613462 11.293046 -1.266976 1.212967 -1.847268 0.610272 0.000000 0.000000 0.000000 4.015937 11.308487 -1.567949 -1.656950 -0.747672 -1.617244 -3.333968 -19.444493 1.762447 0.000000 0.000000 0.000000 4.279747 11.344931 -1.666121 -0.766765 -15.946031 -23.129076 1.178615 1.837989 -5.350375 -0.976080 6.051627 -50.608044 0.855876 -25.668573 0.102064 0.000000 0.000000 0.000000 3.150981 11.439984 -1.287660 -1.826717 16.872695 15.904253 1.300497 2.672126 -2.540826 6.497157 7.162818 37.427302 0.711993 80.476636 -1.087964 0.000000 0.000000 0.000000 
